<?xml version="1.0" encoding="UTF-8"?>
<svg version="1.1" xmlns="http://www.w3.org/2000/svg" width="512" height="512">
<path d="M0 0 C5.18040266 -0.56004353 8.95288607 0.96149414 13.6328125 2.9296875 C24.08402504 6.25176666 35.15024035 6.53989149 46.02148438 7.12304688 C55.21774411 7.70601937 64.03256813 9.11348066 72.3125 13.375 C73.07175781 13.75398437 73.83101562 14.13296875 74.61328125 14.5234375 C77 16 77 16 79.58105469 18.55029297 C83.49207507 21.82401502 87.15546691 21.71431241 92.08984375 21.671875 C92.95259415 21.68462463 93.81534454 21.69737427 94.70423889 21.71051025 C97.44899594 21.74668283 100.19252628 21.74951779 102.9375 21.75 C105.67844402 21.77170949 108.41920759 21.80031656 111.16004944 21.83233643 C112.8607025 21.84990542 114.5614493 21.86035726 116.26219177 21.86248779 C120.94522249 21.88531579 125.37989809 22.22374572 130 23 C130 22.34 130 21.68 130 21 C139.49601995 12.51419494 150.22708883 8.31743703 162.83203125 7.5703125 C183.72230843 6.84264626 183.72230843 6.84264626 203.70703125 1.4140625 C207.11551795 -0.04960557 209.33883112 -0.26789041 213 0 C214.49125496 4.47376489 213.09090313 8.06147296 212 12.5625 C211.66802612 13.95214966 211.66802612 13.95214966 211.3293457 15.36987305 C209.02683832 24.58068763 205.69822205 33.27134334 202 42 C202.58265625 42.31114746 203.1653125 42.62229492 203.765625 42.94287109 C237.21991755 60.86011701 268.4536487 81.70793725 292 112 C292.78761719 112.98226562 293.57523437 113.96453125 294.38671875 114.9765625 C301.22655413 123.57702717 307.23881506 132.6488875 313 142 C313.59361328 142.95616211 313.59361328 142.95616211 314.19921875 143.93164062 C336.72622497 180.64374121 346.478895 224.00923477 346.3125 266.6875 C346.30976578 268.1442514 346.30976578 268.1442514 346.30697632 269.63043213 C346.26271428 283.6325203 345.8487177 297.24864275 343 311 C342.83902832 311.84900879 342.67805664 312.69801758 342.51220703 313.57275391 C331.85649182 369.45128355 301.10702361 422.81277827 256 458 C255.01644531 458.78890625 254.03289062 459.5778125 253.01953125 460.390625 C231.20797486 477.74299093 206.41923627 491.14568048 180 500 C179.17193848 500.27924316 178.34387695 500.55848633 177.49072266 500.84619141 C164.88743499 505.02433497 152.1223948 507.98706954 139 510 C137.86449707 510.17877686 136.72899414 510.35755371 135.55908203 510.54174805 C124.15915876 512.16545238 112.87722851 512.35714296 101.375 512.3125 C99.91450226 512.30976578 99.91450226 512.30976578 98.42449951 512.30697632 C84.40388766 512.2627468 70.7695765 511.85249198 57 509 C56.15099121 508.83902832 55.30198242 508.67805664 54.42724609 508.51220703 C-1.45128355 497.85649182 -54.81277827 467.10702361 -90 422 C-90.78890625 421.01644531 -91.5778125 420.03289062 -92.390625 419.01953125 C-123.40145254 380.04414068 -143.93935888 329.42278959 -144.203125 279.20703125 C-144.21018463 278.30658081 -144.21724426 277.40613037 -144.22451782 276.47839355 C-144.45337878 238.72080705 -144.45337878 238.72080705 -141 222 C-140.80132324 221.01692871 -140.60264648 220.03385742 -140.39794922 219.02099609 C-128.77550754 163.1375106 -98.95874091 111.65087658 -54 76 C-53.01 75.20464844 -52.02 74.40929687 -51 73.58984375 C-38.43040562 63.67557618 -25.18117018 55.43045922 -11 48 C-9.94973633 47.44787842 -8.89947266 46.89575684 -7.81738281 46.3269043 C-1.97674287 43.32430215 3.70805283 40.88758415 10 39 C9.52949219 37.77925781 9.05898437 36.55851562 8.57421875 35.30078125 C-0.75210465 10.78016659 -0.75210465 10.78016659 0 0 Z " fill="#FABB8C" transform="translate(155,0)"/>
<path d="M0 0 C5.18040266 -0.56004353 8.95288607 0.96149414 13.6328125 2.9296875 C24.08402504 6.25176666 35.15024035 6.53989149 46.02148438 7.12304688 C55.21774411 7.70601937 64.03256813 9.11348066 72.3125 13.375 C73.07175781 13.75398437 73.83101562 14.13296875 74.61328125 14.5234375 C77 16 77 16 79.58105469 18.55029297 C83.49207507 21.82401502 87.15546691 21.71431241 92.08984375 21.671875 C92.95259415 21.68462463 93.81534454 21.69737427 94.70423889 21.71051025 C97.44899594 21.74668283 100.19252628 21.74951779 102.9375 21.75 C105.67844402 21.77170949 108.41920759 21.80031656 111.16004944 21.83233643 C112.8607025 21.84990542 114.5614493 21.86035726 116.26219177 21.86248779 C120.94522249 21.88531579 125.37989809 22.22374572 130 23 C130 22.34 130 21.68 130 21 C139.49601995 12.51419494 150.22708883 8.31743703 162.83203125 7.5703125 C183.72230843 6.84264626 183.72230843 6.84264626 203.70703125 1.4140625 C207.11551795 -0.04960557 209.33883112 -0.26789041 213 0 C214.49125496 4.47376489 213.09090313 8.06147296 212 12.5625 C211.66802612 13.95214966 211.66802612 13.95214966 211.3293457 15.36987305 C209.02683832 24.58068763 205.69822205 33.27134334 202 42 C202.58265625 42.31114746 203.1653125 42.62229492 203.765625 42.94287109 C237.21991755 60.86011701 268.4536487 81.70793725 292 112 C292.78761719 112.98226562 293.57523437 113.96453125 294.38671875 114.9765625 C303.46130259 126.38875627 312.05825946 138.63929062 318 152 C315.7072035 150.8779932 313.5497132 149.72125103 311.375 148.375 C306.31135826 146.31203485 301.17380953 145.87983193 295.94140625 147.7265625 C289.86149743 150.94303039 287.0083091 155.28281822 284.70019531 161.60498047 C283.37858977 166.12553501 282.99138211 170.76676811 282.5 175.4375 C281.62570609 183.02042822 280.67388335 190.52713177 279.26782227 198.03125 C278.36121433 202.89127256 277.54723304 207.76233261 276.76953125 212.64453125 C276.54815772 214.02134468 276.32663967 215.39813488 276.10498047 216.77490234 C275.77097609 218.84971545 275.43948328 220.92475809 275.11627197 223.00128174 C274.81270359 224.94862498 274.49835775 226.89427877 274.18359375 228.83984375 C274.00368896 229.97800537 273.82378418 231.11616699 273.63842773 232.28881836 C273 235 273 235 271 237 C270.60167969 236.50628906 270.20335937 236.01257813 269.79296875 235.50390625 C269.26316406 234.86324219 268.73335938 234.22257813 268.1875 233.5625 C267.66542969 232.92441406 267.14335937 232.28632813 266.60546875 231.62890625 C264.12593599 229.11317593 261.96497895 228.99687312 258.5 228.6875 C254.72484472 228.7063058 251.73711276 229.68434419 248.21875 231.01953125 C247.23841797 231.38796143 246.25808594 231.7563916 245.24804688 232.13598633 C244.50619141 232.42111084 243.76433594 232.70623535 243 233 C242.89510254 231.80793945 242.89510254 231.80793945 242.78808594 230.59179688 C239.64580142 195.69324155 230.80574932 166.17945467 208 139 C207.34902344 138.20722656 206.69804687 137.41445312 206.02734375 136.59765625 C202.07256958 131.90417711 197.75091863 127.87700383 193 124 C192.06414062 123.2265625 191.12828125 122.453125 190.1640625 121.65625 C179.65567711 113.16003809 160.91628765 98.56251391 146.765625 99.08203125 C141.43348753 101.85427086 138.73803887 110.1174376 136.625 115.4375 C133.58722185 125.23433453 134.01717456 136.35663948 135.99609375 146.33984375 C137.34386783 153.23752445 137.38572322 160.08962028 137.47851562 167.09765625 C137.5181543 168.56525391 137.5181543 168.56525391 137.55859375 170.0625 C137.57204834 170.94035156 137.58550293 171.81820312 137.59936523 172.72265625 C137.849434 175.03468677 137.849434 175.03468677 139.19873047 176.80566406 C141.68955943 178.45721398 143.29777809 178.23712881 146.26171875 178.046875 C147.29876953 178.005625 148.33582031 177.964375 149.40429688 177.921875 C151.57450032 177.8082653 153.74391747 177.6783351 155.91210938 177.53125 C161.49664927 177.33808494 165.00576923 177.35768165 169.25 181.22265625 C169.87028076 181.86058105 170.49056152 182.49850586 171.12963867 183.15576172 C174.09827369 186.08293427 177.63592904 187.7884591 181.3125 189.6875 C189.99949407 194.19452631 189.99949407 194.19452631 192 198 C192.41222973 203.19409456 191.9654744 206.20915614 190 211 C189.80698118 214.7316971 189.81670052 217.45010155 191 221 C192.65697379 221.69040574 194.3255761 222.3530635 196 223 C200.97904839 226.43791436 203.75973809 230.07308466 205 236 C205.75036303 242.5441497 204.8455411 247.59113804 201 253 C195.74515235 259.16085587 189.30107777 261.04227755 181.53515625 262.4453125 C177.75956281 263.1363529 175.26780944 263.82703974 172 265.9375 C169.67570896 269.49657065 170.04720474 270.20907572 170.375 274.25 C170.265625 277.15625 170.265625 277.15625 169 280 C164.0607908 283.66075939 157.98052629 285.68083344 152.33007812 287.99316406 C131.53730933 296.97780138 116.63255174 314.82566419 108.28125 335.40234375 C105.42917543 343.41076045 103.29456623 351.59172827 102 360 C101.34 360 100.68 360 100 360 C99.85304687 359.18660156 99.70609375 358.37320312 99.5546875 357.53515625 C94.59659771 332.20330671 83.91284586 309.87909287 62 295 C48.81536489 286.7109563 34.86797251 280.62922221 20 276 C21.14714567 268.49704724 21.14714567 268.49704724 24 265 C27.26901041 262.87042831 30.80558555 261.43157923 34.46484375 260.109375 C35.30144531 259.80515625 36.13804687 259.5009375 37 259.1875 C37.763125 258.93355469 38.52625 258.67960937 39.3125 258.41796875 C41.98393673 257.00847524 43.5018101 255.58912311 45.64453125 253.49609375 C50.300363 249.2955934 54.60238172 248.61372293 60.6875 247.875 C77.98639517 245.23161522 93.15543435 239.48600069 104 225 C106.8446542 220.55522781 107.90710837 217.26122857 107 212 C104.27731403 208.00367661 100.89647108 204.77422502 97.25 201.625 C94.91162351 198.89689409 94.55015834 197.69738033 93.75 194.3125 C92.02414666 187.68522319 87.69070909 183.77061895 83 179 C75.5 170.59937888 75.5 170.59937888 75.5 163.90625 C76.28316524 159.35410202 78.36001388 155.465409 80.50976562 151.40551758 C82.57920178 147.4030974 83.49742714 144.50268466 83 140 C80.37606351 134.25232959 75.81348071 131.49147262 70.65625 128.02734375 C66.45183849 124.81838849 63.37180179 121.14425671 62 116 C61.11345798 108.47782529 62.77384077 102.76917338 66 96 C65.67 95.67 65.34 95.34 65 95 C43.36339931 101.61118354 24.22110087 111.09611148 7 126 C6.21882813 126.64710937 5.43765625 127.29421875 4.6328125 127.9609375 C-20.70343493 149.43976318 -36.07233941 183.40041714 -40 216 C-40.23597445 218.97701292 -40.40661983 221.95533338 -40.5625 224.9375 C-40.62727539 226.10635742 -40.62727539 226.10635742 -40.69335938 227.29882812 C-40.79828077 229.19907117 -40.8995245 231.09951669 -41 233 C-41.68964844 232.71125 -42.37929687 232.4225 -43.08984375 232.125 C-51.81019459 228.60733046 -51.81019459 228.60733046 -61 229 C-63.69730631 230.69161849 -65.83193219 232.68178899 -68 235 C-68.66 235.66 -69.32 236.32 -70 237 C-71.59627631 231.81861611 -72.61963487 226.74283965 -73.40234375 221.3828125 C-73.58719078 220.1596785 -73.58719078 220.1596785 -73.77577209 218.91183472 C-74.16734714 216.31685162 -74.55284218 213.72101666 -74.9375 211.125 C-75.4437706 207.73133924 -75.95305318 204.33814511 -76.46484375 200.9453125 C-76.59014465 200.1124321 -76.71544556 199.2795517 -76.84454346 198.4214325 C-77.79759352 192.15680375 -78.85949112 185.91617491 -80.01219177 179.68521118 C-80.81830472 175.27507623 -81.38985021 170.89115652 -81.875 166.4375 C-82.84590884 159.60981847 -84.61821149 155.06545195 -89.75390625 150.41015625 C-94.8940954 146.66145265 -99.77383846 146.02846808 -106 147 C-109.80587172 148.48006122 -112.83193068 150.44117478 -116 153 C-114.47768676 147.39430535 -111.72913944 142.96343001 -108.625 138.125 C-108.09261719 137.29073486 -107.56023437 136.45646973 -107.01171875 135.59692383 C-92.52503505 113.17452001 -75.13036035 92.42485994 -54 76 C-53.01773438 75.21238281 -52.03546875 74.42476563 -51.0234375 73.61328125 C-38.49864502 63.6462579 -25.17265461 55.42599735 -11 48 C-9.94973633 47.44787842 -8.89947266 46.89575684 -7.81738281 46.3269043 C-1.97674287 43.32430215 3.70805283 40.88758415 10 39 C9.52949219 37.77925781 9.05898437 36.55851562 8.57421875 35.30078125 C-0.75210465 10.78016659 -0.75210465 10.78016659 0 0 Z " fill="#2EBBF5" transform="translate(155,0)"/>
<path d="M0 0 C0.8084686 2.81386512 1.092165 5.20804038 0.9921875 8.12890625 C0.52275945 29.15528765 2.26288877 50.06053337 4 71 C4.10683105 72.29325195 4.21366211 73.58650391 4.32373047 74.91894531 C7.92348975 116.09451694 15.63341891 156.57744804 46.21875 186.22265625 C48.0162757 188.01624 49.6647646 189.8810743 51.3125 191.8125 C57.56185138 199.06060616 64.44123527 205.87410842 71.734375 212.0703125 C73.53794661 213.60645797 75.31135323 215.16448381 77.078125 216.7421875 C83.7079281 222.61007498 90.4307275 227.90270307 97.93774414 232.61450195 C101.78463562 235.0533396 105.12864153 237.44166231 108 241 C108.5234375 243.9375 108.5234375 243.9375 108.375 247 C108.32472656 248.5159375 108.32472656 248.5159375 108.2734375 250.0625 C108.02120549 252.77219243 107.59504692 255.34667604 107 258 C108.63582031 258.16435547 108.63582031 258.16435547 110.3046875 258.33203125 C118.14301109 259.14634549 125.92329449 260.08036712 133.6875 261.4375 C140.08941023 262.5550525 146.4871946 263.46189211 152.9375 264.25 C164.94253618 265.74123549 176.87305118 267.68698689 188.8125 269.625 C189.79330536 269.78311157 190.77411072 269.94122314 191.78463745 270.10412598 C194.59275171 270.5577216 197.40001791 271.01620837 200.20703125 271.4765625 C201.06432831 271.6150058 201.92162537 271.7534491 202.80490112 271.89608765 C208.76921876 272.88460938 208.76921876 272.88460938 211 274 C211.02578125 273.25298828 211.0515625 272.50597656 211.078125 271.73632812 C211.58553898 262.2742106 213.58953858 253.60944811 216 244.5 C216.55585654 242.35681054 217.10864643 240.21284885 217.66088867 238.06872559 C218.15832061 236.14414597 218.66292271 234.2214237 219.16796875 232.29882812 C219.8636948 229.54042133 220.47542642 226.7950764 221 224 C221.66 224 222.32 224 223 224 C228.82578566 248.0211503 228.82578566 248.0211503 231.3125 259.1875 C231.47137695 259.8976123 231.63025391 260.60772461 231.79394531 261.33935547 C232.64742636 265.21190851 233.36145019 269.08703019 234 273 C234.57453415 272.90865784 235.1490683 272.81731567 235.74101257 272.72320557 C243.0558019 271.56098937 250.37141696 270.40404338 257.6875 269.25 C258.8512616 269.06636902 260.01502319 268.88273804 261.21405029 268.69354248 C275.95083475 266.37224062 290.68626593 264.098605 305.4831543 262.19238281 C310.71827425 261.50844306 315.79818477 260.63581329 320.93652344 259.42822266 C324.1282982 258.76585009 327.3129125 258.56429636 330.5625 258.375 C331.78066406 258.30023438 332.99882812 258.22546875 334.25390625 258.1484375 C335.16011719 258.09945313 336.06632812 258.05046875 337 258 C336.84144531 257.29875 336.68289063 256.5975 336.51953125 255.875 C335.97789966 252.87770036 335.76127918 250.04436192 335.6875 247 C335.65011719 245.989375 335.61273438 244.97875 335.57421875 243.9375 C336.12022396 240.170565 337.32431604 238.67568396 340 236 C342.55859375 234.3671875 342.55859375 234.3671875 345.4375 232.875 C352.77474962 228.77187384 358.7452813 223.5524055 365 218 C366.35401871 216.83316162 367.70816269 215.66646857 369.0625 214.5 C379.88217882 204.95590437 390.65805009 195.26087341 400.01953125 184.25390625 C401.60746774 182.44672804 403.22382338 180.70155049 404.88671875 178.96484375 C414.17113273 169.23790297 420.31320098 159.70294002 425 147 C425.35578125 146.0406958 425.35578125 146.0406958 425.71875 145.06201172 C442.08544744 99.97900596 443.35409422 47.5139972 443 0 C446.16971963 4.00341613 447.88318062 8.09516993 449.75 12.8125 C450.09708008 13.6890625 450.44416016 14.565625 450.80175781 15.46875 C456.08127699 29.09269575 460.39482255 43.05185617 463.3125 57.375 C463.53341309 58.4587793 463.53341309 58.4587793 463.75878906 59.56445312 C466.65690533 74.91700349 467.37327835 90.09860164 467.3125 105.6875 C467.30976578 107.1442514 467.30976578 107.1442514 467.30697632 108.63043213 C467.26271428 122.6325203 466.8487177 136.24864275 464 150 C463.83902832 150.84900879 463.67805664 151.69801758 463.51220703 152.57275391 C452.85649182 208.45128355 422.10702361 261.81277827 377 297 C376.01644531 297.78890625 375.03289062 298.5778125 374.01953125 299.390625 C352.20797486 316.74299093 327.41923627 330.14568048 301 339 C300.17193848 339.27924316 299.34387695 339.55848633 298.49072266 339.84619141 C285.88743499 344.02433497 273.1223948 346.98706954 260 349 C258.86449707 349.17877686 257.72899414 349.35755371 256.55908203 349.54174805 C245.15915876 351.16545238 233.87722851 351.35714296 222.375 351.3125 C220.91450226 351.30976578 220.91450226 351.30976578 219.42449951 351.30697632 C205.40388766 351.2627468 191.7695765 350.85249198 178 348 C177.15099121 347.83902832 176.30198242 347.67805664 175.42724609 347.51220703 C119.54871645 336.85649182 66.18722173 306.10702361 31 261 C30.21109375 260.01644531 29.4221875 259.03289062 28.609375 258.01953125 C-2.40145254 219.04414068 -22.93935888 168.42278959 -23.203125 118.20703125 C-23.21018463 117.30658081 -23.21724426 116.40613037 -23.22451782 115.47839355 C-23.45337878 77.72080705 -23.45337878 77.72080705 -20 61 C-19.70198486 59.52539307 -19.70198486 59.52539307 -19.39794922 58.02099609 C-15.23808834 38.01938786 -9.25682217 18.2681983 0 0 Z " fill="#2A9DDC" transform="translate(34,161)"/>
<path d="M0 0 C5.98455675 0.3861255 11.71583831 2.87617129 17.0625 5.4375 C17.78711426 5.78312988 18.51172852 6.12875977 19.25830078 6.48486328 C33.10197238 13.32120728 44.73976471 22.72738055 55.60546875 33.609375 C56.92512413 34.92687759 58.25629003 36.2342172 59.6328125 37.4921875 C82.41832357 58.6075564 93.60525304 90.44206472 96.625 120.5625 C96.82609375 122.50479492 96.82609375 122.50479492 97.03125 124.48632812 C97.35885757 127.65710144 97.68164837 130.8282863 98 134 C98.67184326 133.71632568 99.34368652 133.43265137 100.03588867 133.14038086 C101.36970581 132.58942749 101.36970581 132.58942749 102.73046875 132.02734375 C103.60856201 131.66116943 104.48665527 131.29499512 105.39135742 130.91772461 C110.09419387 129.26325926 114.06377625 129.09943082 118.6875 131.25 C121.16196385 133.12256724 123.58009285 135.0576533 126 137 C126.19634033 135.75613525 126.39268066 134.51227051 126.5949707 133.23071289 C127.33708434 128.53190103 128.08122847 123.83341247 128.82592773 119.13500977 C129.1454758 117.11719119 129.46450276 115.09929001 129.78295898 113.08129883 C131.54536607 101.91568667 133.34960957 90.76540966 135.38793945 79.64648438 C136.0150159 75.9105395 136.46411224 72.2025363 136.875 68.4375 C137.92587688 60.92631446 140.45205603 56.05807753 146.125 51.0625 C151.18954804 47.42923728 155.96491277 47.48054805 162 48 C167.21085644 49.90396678 172.09713189 53.28161699 175.3125 57.875 C177.37465953 64.24894763 177.15854295 70.93944499 177.125 77.5625 C177.12016602 78.58206787 177.11533203 79.60163574 177.11035156 80.65209961 C177.08627837 83.76837484 177.04736486 86.88399669 177 90 C176.98743164 90.85980469 176.97486328 91.71960938 176.96191406 92.60546875 C176.41127543 120.87907703 172.6336788 149.27658158 167.53320312 177.05859375 C167.09168215 179.49423691 166.68229505 181.93006543 166.296875 184.375 C162.8005369 204.81513042 155.33869451 223.94945541 141 239 C139.93010591 240.2227361 138.86722762 241.45165754 137.8125 242.6875 C126.6539674 255.48088738 114.94267222 267.99985799 102 279 C101.04480469 279.84433594 100.08960938 280.68867188 99.10546875 281.55859375 C93.50776281 286.46713922 87.81678927 291.01167324 81.5625 295.0625 C80.71244385 295.61719971 80.71244385 295.61719971 79.84521484 296.18310547 C68.85751519 303.08975222 55.43668646 303.37674055 42.8125 303.3125 C41.63848633 303.30686035 40.46447266 303.3012207 39.25488281 303.29541016 C15.58150151 302.96778457 -4.96928896 297.0035067 -22.65234375 280.44140625 C-31.09085818 271.66591288 -36.55746536 261.24154417 -41 250 C-41.33 249.34 -41.66 248.68 -42 248 C-35.74613195 225.07787275 -22.82338322 206.62189413 -2.5 194.0625 C-1.81728027 193.63791504 -1.13456055 193.21333008 -0.43115234 192.77587891 C17.25786109 182 17.25786109 182 23 182 C22.95359375 181.26394531 22.9071875 180.52789062 22.859375 179.76953125 C22.56327543 171.76426799 22.56327543 171.76426799 24.75 167.9375 C28.99047522 164.28597967 32.74960507 163.61848341 38.25 162.75 C45.65881673 161.39604566 50.82598399 159.31084123 55.36328125 153.1484375 C58.20177346 148.25179458 58.82276561 143.56871846 58 138 C55.6357839 130.53405443 51.55505762 126.89760183 45 123 C42.52282833 119.28424249 42.69654258 117.40013262 43 113 C43.33 112.195625 43.66 111.39125 44 110.5625 C44.93065152 108.17770548 45.28181595 106.52396873 45.4375 104 C45.47746094 103.360625 45.51742187 102.72125 45.55859375 102.0625 C44.37716557 97.70030365 40.68538639 95.39841923 36.94921875 93.2265625 C34.78309471 92.16295668 32.61643167 91.10044784 30.44921875 90.0390625 C27.54262427 88.52226967 25.62601631 86.62764136 23.34765625 84.28515625 C19.04769993 80.39346609 15.60322692 80.35956681 9.9609375 80.58007812 C8.90132813 80.65677734 7.84171875 80.73347656 6.75 80.8125 C4.62081818 80.94142528 2.49048566 81.05285629 0.359375 81.14453125 C-0.57422852 81.21003174 -1.50783203 81.27553223 -2.46972656 81.34301758 C-5 81 -5 81 -7.30126953 79.30566406 C-9.2904635 76.60575778 -9.50780358 75.28411167 -9.5390625 71.96484375 C-9.56226563 70.98966797 -9.58546875 70.01449219 -9.609375 69.00976562 C-9.61710937 67.48899414 -9.61710937 67.48899414 -9.625 65.9375 C-9.71605364 58.96734366 -10.1819195 52.46033993 -11.54150391 45.61889648 C-14.33292848 29.67448146 -11.25933333 15.28052952 -2 2 C-1.34 1.34 -0.68 0.68 0 0 Z " fill="#FABB8C" transform="translate(301,98)"/>
<path d="M0 0 C-0.45375 0.70125 -0.9075 1.4025 -1.375 2.125 C-5.1457287 8.79628925 -6.36854998 15.64310438 -4.453125 23.140625 C-1.78855592 29.52553582 3.57540169 33.02140401 9 37 C14.69283111 41.19732685 14.69283111 41.19732685 16 45 C16 50.98897968 14.77823354 54.73490521 11.9375 60 C9.20820014 65.16922816 7.69009627 69.18730218 9 75 C11.58799453 80.5288974 16.28017292 84.36593904 20.66015625 88.53515625 C23.9853056 92.03794296 26.08452409 95.21858472 26.875 100 C27.85115225 104.25380169 29.70993337 106.07549633 33 109 C39.6305854 115.46550859 39.6305854 115.46550859 40.8125 120.375 C38.61671188 130.17159317 31.93297426 137.21688326 24 143 C12.69147523 149.99524882 0.7510525 153.25228375 -12.375 154.75 C-18.12747719 155.60938757 -21.09422675 158.16042528 -25.34765625 161.97265625 C-29.24803619 164.95394814 -33.4803482 166.2996787 -38.1171875 167.796875 C-41.90185428 169.37638363 -44.08521085 171.32061097 -46.046875 174.921875 C-46.27890625 175.52515625 -46.5109375 176.1284375 -46.75 176.75 C-47.1625 177.8225 -47.575 178.895 -48 180 C-58.11876146 176.20322579 -66.39514808 169.24190242 -74.79907227 162.62817383 C-80.50860121 158.1396997 -86.28275963 153.75184949 -92.125 149.4375 C-92.89392578 148.86636475 -93.66285156 148.29522949 -94.45507812 147.70678711 C-95.19435547 147.1628833 -95.93363281 146.61897949 -96.6953125 146.05859375 C-97.40679443 145.53410645 -98.11827637 145.00961914 -98.85131836 144.46923828 C-101.00399323 142.99726948 -103.21417216 141.81081544 -105.51171875 140.58203125 C-108.73639454 138.59137721 -108.91794389 138.33400815 -109.88671875 134.390625 C-109.86607706 133.00897426 -109.79688305 131.62746876 -109.6875 130.25 C-109.63952271 129.13443726 -109.63952271 129.13443726 -109.59057617 127.99633789 C-107.85493654 96.92806161 -94.92828518 67.60561247 -75 44 C-74.16210938 43.00742188 -73.32421875 42.01484375 -72.4609375 40.9921875 C-66.84162482 34.58795495 -60.7839434 29.1444086 -54 24 C-53.22269531 23.40703125 -52.44539063 22.8140625 -51.64453125 22.203125 C-40.45747218 14.03301151 -14.09031381 -4.69677127 0 0 Z " fill="#60B450" transform="translate(223,95)"/>
<path d="M0 0 C2.85246202 1.68413335 3.88629897 4.13193546 5.48046875 6.99609375 C13.27496628 20.35887868 23.25296244 29.81487904 38.37109375 34.13671875 C52.83750092 37.58363637 67.17721844 35.43091438 80.79296875 30.05859375 C81.78296875 29.72859375 82.77296875 29.39859375 83.79296875 29.05859375 C88.0184771 36.35891398 88.25548723 42.74610884 87.79296875 51.05859375 C87.14561768 51.11805176 86.4982666 51.17750977 85.83129883 51.23876953 C52.13681031 54.46531168 22.53582958 64.55925127 -3.20703125 87.05859375 C-3.98433594 87.703125 -4.76164062 88.34765625 -5.5625 89.01171875 C-30.90993742 110.47633013 -46.27983172 144.46283768 -50.20703125 177.05859375 C-50.4430057 180.03560667 -50.61365108 183.01392713 -50.76953125 185.99609375 C-50.83430664 187.16495117 -50.83430664 187.16495117 -50.90039062 188.35742188 C-51.00531202 190.25766492 -51.10655575 192.15811044 -51.20703125 194.05859375 C-51.89667969 193.76984375 -52.58632812 193.48109375 -53.296875 193.18359375 C-62.01722584 189.66592421 -62.01722584 189.66592421 -71.20703125 190.05859375 C-73.90433756 191.75021224 -76.03896344 193.74038274 -78.20703125 196.05859375 C-78.86703125 196.71859375 -79.52703125 197.37859375 -80.20703125 198.05859375 C-81.80330756 192.87720986 -82.82666612 187.8014334 -83.609375 182.44140625 C-83.79422203 181.21827225 -83.79422203 181.21827225 -83.98280334 179.97042847 C-84.37437839 177.37544537 -84.75987343 174.77961041 -85.14453125 172.18359375 C-85.65080185 168.78993299 -86.16008443 165.39673886 -86.671875 162.00390625 C-86.7971759 161.17102585 -86.92247681 160.33814545 -87.05157471 159.48002625 C-88.00462477 153.2153975 -89.06652237 146.97476866 -90.21922302 140.74380493 C-91.02533597 136.33366998 -91.59688146 131.94975027 -92.08203125 127.49609375 C-93.05294009 120.66841222 -94.82524274 116.1240457 -99.9609375 111.46875 C-105.10112665 107.7200464 -109.98086971 107.08706183 -116.20703125 108.05859375 C-120.01290297 109.53865497 -123.03896193 111.49976853 -126.20703125 114.05859375 C-124.68471801 108.4528991 -121.93617069 104.02202376 -118.83203125 99.18359375 C-118.29964844 98.34932861 -117.76726562 97.51506348 -117.21875 96.65551758 C-102.7320663 74.23311376 -85.3373916 53.48345369 -64.20703125 37.05859375 C-62.73363281 35.87716797 -62.73363281 35.87716797 -61.23046875 34.671875 C-45.16131145 21.88430458 -27.6122491 12.10071191 -9.20703125 3.05859375 C-8.49579102 2.70410156 -7.78455078 2.34960938 -7.05175781 1.984375 C-4.66565001 0.86299313 -2.6528813 0.07043048 0 0 Z " fill="#024787" transform="translate(165.20703125,38.94140625)"/>
<path d="M0 0 C3.76754912 0.60002489 6.71657869 1.68775107 10.09765625 3.44140625 C11.05792725 3.93833984 12.01819824 4.43527344 13.00756836 4.94726562 C14.0156958 5.48029297 15.02382324 6.01332031 16.0625 6.5625 C17.62013062 7.38331055 17.62013062 7.38331055 19.20922852 8.22070312 C26.4758957 12.0938259 33.35703314 16.11945292 40 21 C40.59796387 21.43248047 41.19592773 21.86496094 41.81201172 22.31054688 C60.50056894 35.84988423 77.79004726 50.71908783 92 69 C92.78761719 69.98226562 93.57523438 70.96453125 94.38671875 71.9765625 C103.46130259 83.38875627 112.05825946 95.63929062 118 109 C115.7072035 107.8779932 113.5497132 106.72125103 111.375 105.375 C106.31135826 103.31203485 101.17380953 102.87983193 95.94140625 104.7265625 C89.86149743 107.94303039 87.0083091 112.28281822 84.70019531 118.60498047 C83.37858977 123.12553501 82.99138211 127.76676811 82.5 132.4375 C81.62570609 140.02042822 80.67388335 147.52713177 79.26782227 155.03125 C78.36121433 159.89127256 77.54723304 164.76233261 76.76953125 169.64453125 C76.54815772 171.02134468 76.32663967 172.39813488 76.10498047 173.77490234 C75.77097609 175.84971545 75.43948328 177.92475809 75.11627197 180.00128174 C74.81270359 181.94862498 74.49835775 183.89427877 74.18359375 185.83984375 C73.91373657 187.54708618 73.91373657 187.54708618 73.63842773 189.28881836 C73 192 73 192 71 194 C70.60167969 193.50628906 70.20335937 193.01257813 69.79296875 192.50390625 C69.26316406 191.86324219 68.73335937 191.22257813 68.1875 190.5625 C67.66542969 189.92441406 67.14335937 189.28632813 66.60546875 188.62890625 C64.12593599 186.11317593 61.96497895 185.99687312 58.5 185.6875 C54.72484472 185.7063058 51.73711276 186.68434419 48.21875 188.01953125 C47.23841797 188.38796143 46.25808594 188.7563916 45.24804688 189.13598633 C44.13526367 189.5636731 44.13526367 189.5636731 43 190 C42.93006836 189.20529297 42.86013672 188.41058594 42.78808594 187.59179688 C39.64580142 152.69324155 30.80574932 123.17945467 8 96 C7.34902344 95.20722656 6.69804687 94.41445312 6.02734375 93.59765625 C2.07256958 88.90417711 -2.24908137 84.87700383 -7 81 C-7.93585938 80.2265625 -8.87171875 79.453125 -9.8359375 78.65625 C-22.27579965 68.59840562 -35.93289734 61.31254303 -51 56 C-51.63373535 55.77328613 -52.2674707 55.54657227 -52.92041016 55.31298828 C-63.43762093 51.60989396 -73.97652114 49.5693147 -85 48 C-85.48661855 39.37603795 -84.92480024 32.76199333 -81 25 C-79.96359375 25.34933594 -78.9271875 25.69867188 -77.859375 26.05859375 C-76.48961023 26.51830932 -75.11981707 26.9779403 -73.75 27.4375 C-73.06808594 27.66759766 -72.38617188 27.89769531 -71.68359375 28.13476562 C-57.65348038 32.83417253 -40.62075375 33.38531868 -27 27 C-14.81928486 20.68891806 -6.82733153 11.74476645 0 0 Z " fill="#024787" transform="translate(355,43)"/>
<path d="M0 0 C0.8084686 2.81386512 1.092165 5.20804038 0.9921875 8.12890625 C0.52275945 29.15528765 2.26288877 50.06053337 4 71 C4.10683105 72.29325195 4.21366211 73.58650391 4.32373047 74.91894531 C7.92348975 116.09451694 15.63341891 156.57744804 46.21875 186.22265625 C48.0162757 188.01624 49.6647646 189.8810743 51.3125 191.8125 C57.56185138 199.06060616 64.44123527 205.87410842 71.734375 212.0703125 C73.53794661 213.60645797 75.31135323 215.16448381 77.078125 216.7421875 C83.7079281 222.61007498 90.4307275 227.90270307 97.93774414 232.61450195 C101.78498398 235.05356044 105.1309335 237.4391399 108 241 C108.5234375 243.97265625 108.5234375 243.97265625 108.375 247.0625 C108.32472656 248.59583984 108.32472656 248.59583984 108.2734375 250.16015625 C108.0427284 252.55623509 107.67396267 254.6963735 107 257 C106.16855469 256.98839844 105.33710938 256.97679687 104.48046875 256.96484375 C103.39378906 256.95582031 102.30710937 256.94679688 101.1875 256.9375 C99.56908203 256.92009766 99.56908203 256.92009766 97.91796875 256.90234375 C94.93487831 256.86375234 94.93487831 256.86375234 92 258 C91.86948242 258.76852295 91.73896484 259.5370459 91.60449219 260.32885742 C88.89476696 276.25145915 86.10108659 292.14807693 83 308 C76.76027314 304.54275158 71.47887092 300.57444612 66 296 C65.4642334 295.55591797 64.9284668 295.11183594 64.37646484 294.65429688 C52.04869015 284.40874991 40.87885955 273.66385719 31 261 C30.21109375 260.01644531 29.4221875 259.03289062 28.609375 258.01953125 C-2.40145254 219.04414068 -22.93935888 168.42278959 -23.203125 118.20703125 C-23.21018463 117.30658081 -23.21724426 116.40613037 -23.22451782 115.47839355 C-23.45337878 77.72080705 -23.45337878 77.72080705 -20 61 C-19.70198486 59.52539307 -19.70198486 59.52539307 -19.39794922 58.02099609 C-15.23808834 38.01938786 -9.25682217 18.2681983 0 0 Z " fill="#024788" transform="translate(34,161)"/>
<path d="M0 0 C3.16971963 4.00341613 4.88318062 8.09516993 6.75 12.8125 C7.09708008 13.6890625 7.44416016 14.565625 7.80175781 15.46875 C13.08127699 29.09269575 17.39482255 43.05185617 20.3125 57.375 C20.53341309 58.4587793 20.53341309 58.4587793 20.75878906 59.56445312 C23.65690533 74.91700349 24.37327835 90.09860164 24.3125 105.6875 C24.31067719 106.6586676 24.30885437 107.62983521 24.30697632 108.63043213 C24.26271428 122.6325203 23.8487177 136.24864275 21 150 C20.83902832 150.84900879 20.67805664 151.69801758 20.51220703 152.57275391 C9.86321741 208.41601458 -20.88033129 261.85930823 -66 297 C-67.15762648 297.91396827 -68.31517517 298.82803509 -69.47265625 299.7421875 C-70.64769826 300.66240307 -71.82346758 301.58169075 -73 302.5 C-73.55228271 302.93393066 -74.10456543 303.36786133 -74.67358398 303.81494141 C-77.11956239 305.70217455 -79.04274263 307.01424754 -82 308 C-82.20157715 306.86570557 -82.4031543 305.73141113 -82.61083984 304.56274414 C-83.36557493 300.3187451 -84.12285046 296.07520253 -84.88085938 291.83178711 C-85.20738952 290.00183087 -85.53324816 288.17175466 -85.85839844 286.34155273 C-86.3282728 283.69742845 -86.80063171 281.05375774 -87.2734375 278.41015625 C-87.41623138 277.60353043 -87.55902527 276.7969046 -87.70614624 275.96583557 C-88.12333616 273.64100938 -88.55861732 271.32034425 -89 269 C-89.14753723 268.18103241 -89.29507446 267.36206482 -89.44708252 266.51828003 C-89.60328064 265.72003815 -89.75947876 264.92179626 -89.92041016 264.09936523 C-90.12327133 263.02597145 -90.12327133 263.02597145 -90.33023071 261.93089294 C-91.13926179 259.59851905 -92.0622142 258.51444788 -94 257 C-96.97192762 256.63680691 -96.97192762 256.63680691 -100.1875 256.8125 C-101.27417969 256.83957031 -102.36085938 256.86664063 -103.48046875 256.89453125 C-104.31191406 256.92933594 -105.14335937 256.96414063 -106 257 C-106.98349532 253.66571099 -107.22934112 250.53328911 -107.3125 247.0625 C-107.34988281 246.04285156 -107.38726562 245.02320313 -107.42578125 243.97265625 C-106.88269335 240.18100586 -105.69470612 238.69016957 -103 236 C-100.44140625 234.3671875 -100.44140625 234.3671875 -97.5625 232.875 C-90.22525038 228.77187384 -84.2547187 223.5524055 -78 218 C-76.64598129 216.83316162 -75.29183731 215.66646857 -73.9375 214.5 C-63.11782118 204.95590437 -52.34194991 195.26087341 -42.98046875 184.25390625 C-41.39253226 182.44672804 -39.77617662 180.70155049 -38.11328125 178.96484375 C-28.82886727 169.23790297 -22.68679902 159.70294002 -18 147 C-17.7628125 146.36046387 -17.525625 145.72092773 -17.28125 145.06201172 C-0.91455256 99.97900596 0.35409422 47.5139972 0 0 Z " fill="#024788" transform="translate(477,161)"/>
<path d="M0 0 C5.18040266 -0.56004353 8.95288607 0.96149414 13.6328125 2.9296875 C24.08402504 6.25176666 35.15024035 6.53989149 46.02148438 7.12304688 C55.21774411 7.70601937 64.03256813 9.11348066 72.3125 13.375 C73.07175781 13.75398437 73.83101563 14.13296875 74.61328125 14.5234375 C77 16 77 16 79.58105469 18.55029297 C83.49207507 21.82401502 87.15546691 21.71431241 92.08984375 21.671875 C92.95259415 21.68462463 93.81534454 21.69737427 94.70423889 21.71051025 C97.44899594 21.74668283 100.19252628 21.74951779 102.9375 21.75 C105.67844402 21.77170949 108.41920759 21.80031656 111.16004944 21.83233643 C112.8607025 21.84990542 114.5614493 21.86035726 116.26219177 21.86248779 C120.94522249 21.88531579 125.37989809 22.22374572 130 23 C130 22.34 130 21.68 130 21 C139.49601995 12.51419494 150.22708883 8.31743703 162.83203125 7.5703125 C183.72230843 6.84264626 183.72230843 6.84264626 203.70703125 1.4140625 C207.11551795 -0.04960557 209.33883112 -0.26789041 213 0 C214.49094414 4.47283241 213.09247134 8.06255852 212 12.5625 C211.7736084 13.49618408 211.5472168 14.42986816 211.31396484 15.3918457 C207.98283053 28.57674789 203.81112817 41.41481918 195 52 C194.43410156 52.70253906 193.86820313 53.40507813 193.28515625 54.12890625 C184.469858 64.6632876 173.86958168 72.66013281 160 75 C156.43278632 75.31376649 152.89238017 75.38057855 149.3125 75.375 C148.34513916 75.37483887 147.37777832 75.37467773 146.38110352 75.37451172 C138.61841901 75.25120179 132.19959734 74.01173996 125 71 C123.59427734 70.43925781 123.59427734 70.43925781 122.16015625 69.8671875 C121.44730469 69.58101563 120.73445313 69.29484375 120 69 C116.68289038 74.19199767 115.88796187 77.77284157 115.859375 83.90234375 C115.84003906 85.03994141 115.82070313 86.17753906 115.80078125 87.34960938 C115.76698477 89.73746063 115.74870226 92.12558289 115.74609375 94.51367188 C115.53705294 104.23406977 115.53705294 104.23406977 112.671875 107.2734375 C109.08342874 109.59228728 107.19016504 109.82306813 103 109 C99.67044478 106.21889921 98.24097225 104.519052 97.55566406 100.19897461 C97.38986434 96.83380666 97.35241356 93.49414468 97.375 90.125 C97.375 82.38704607 97.29144883 76.08793479 94 69 C92.96359375 69.34933594 91.9271875 69.69867188 90.859375 70.05859375 C89.48961023 70.51830932 88.11981707 70.9779403 86.75 71.4375 C86.06808594 71.66759766 85.38617188 71.89769531 84.68359375 72.13476562 C69.60379723 77.18576543 52.42857991 77.10197167 38 70 C17.62599295 58.20452223 8.00092212 37.79019807 2 16 C0.61689934 10.52182607 -0.24084542 5.65986743 0 0 Z " fill="#84D149" transform="translate(155,0)"/>
<path d="M0 0 C4.77288889 7.24772016 4.94377873 18.40531221 6.40185547 26.92041016 C6.81403928 29.3214666 7.2330474 31.72127044 7.65234375 34.12109375 C7.91708236 35.65878266 8.1814195 37.19654075 8.4453125 38.734375 C8.57028107 39.44591736 8.69524963 40.15745972 8.82400513 40.89056396 C10.06767246 48.23533027 10.06767246 48.23533027 9.6875 51.5625 C7.50197214 53.39276063 5.56913537 54.71742556 3.125 56.125 C2.41754639 56.54700684 1.71009277 56.96901367 0.98120117 57.40380859 C-1.43332249 58.82162885 -3.8679913 60.19705267 -6.3125 61.5625 C-7.63749512 62.3052417 -7.63749512 62.3052417 -8.98925781 63.06298828 C-22.33995448 70.46355964 -35.84670136 76.6841432 -50.3125 81.5625 C-51.14346191 81.84319336 -51.97442383 82.12388672 -52.83056641 82.41308594 C-71.58770929 88.63007376 -92.43713768 93.72305777 -112.3125 93.5625 C-114.18602017 82.3844441 -116.04907157 71.2046762 -117.90386963 60.02349854 C-118.29751827 57.65272829 -118.69232414 55.28215348 -119.08740234 52.91162109 C-119.68238644 49.33867552 -120.27220994 45.76491401 -120.85806274 42.19046021 C-121.18170786 40.22271588 -121.51012234 38.2557579 -121.83862305 36.28881836 C-122.03367432 35.09264893 -122.22872559 33.89647949 -122.4296875 32.6640625 C-122.68661377 31.10679443 -122.68661377 31.10679443 -122.94873047 29.51806641 C-123.90094462 21.78148617 -123.90094462 21.78148617 -122.21020508 18.27905273 C-119.5608206 15.88257489 -117.47570671 15.66477661 -113.94921875 15.09765625 C-113.26558762 14.98333755 -112.58195648 14.86901886 -111.87760925 14.75123596 C-109.35856471 14.33652887 -106.83586986 13.95000702 -104.3125 13.5625 C-102.13349229 13.21552156 -99.95462806 12.86764127 -97.77587891 12.51904297 C-90.22951043 11.32029026 -82.67751492 10.15928019 -75.125 9 C-72.51363551 8.59724094 -69.90230711 8.19424776 -67.29101562 7.79101562 C-60.2986274 6.71190491 -53.30563188 5.63677886 -46.3125 4.5625 C-43.97614255 4.20337265 -41.63979788 3.84416211 -39.3034668 3.48486328 C-38.27867722 3.32728546 -37.25388763 3.16970764 -36.19804382 3.00735474 C-31.90178951 2.34501543 -27.60674707 1.67521855 -23.3125 1 C-22.50683594 0.87431641 -21.70117188 0.74863281 -20.87109375 0.61914062 C-17.72522477 0.12419748 -14.5952859 -0.38070943 -11.47265625 -1.0078125 C-7.27021485 -1.84374117 -3.73258443 -2.32025519 0 0 Z " fill="#2EBBF5" transform="translate(385.3125,418.4375)"/>
<path d="M0 0 C5.98455675 0.3861255 11.71583831 2.87617129 17.0625 5.4375 C17.78711426 5.78312988 18.51172852 6.12875977 19.25830078 6.48486328 C33.10197238 13.32120728 44.73976471 22.72738055 55.60546875 33.609375 C56.92512413 34.92687759 58.25629003 36.2342172 59.6328125 37.4921875 C82.04442795 58.26106674 93.83816078 90.23518895 96.78320312 119.99414062 C96.98729401 121.88244094 97.26473816 123.76239978 97.546875 125.640625 C97.88402797 129.0924292 97.93705172 131.65738269 97 135 C94.12453189 137.99118112 90.70311627 139.71392094 87.10205078 141.71923828 C82.73961135 144.37723564 78.78004503 147.62089554 74.75 150.75 C72.92630972 152.1491266 71.10209253 153.54756668 69.27734375 154.9453125 C67.94292236 155.97060059 67.94292236 155.97060059 66.58154297 157.01660156 C35.36533727 181 35.36533727 181 23 181 C22.37577409 172.07010156 22.37577409 172.07010156 24.75 168 C28.9581773 164.25939796 32.72374759 163.62256617 38.25 162.75 C45.65881673 161.39604566 50.82598399 159.31084123 55.36328125 153.1484375 C58.20177346 148.25179458 58.82276561 143.56871846 58 138 C55.6357839 130.53405443 51.55505762 126.89760183 45 123 C42.52282833 119.28424249 42.69654258 117.40013262 43 113 C43.33 112.195625 43.66 111.39125 44 110.5625 C44.93065152 108.17770548 45.28181595 106.52396873 45.4375 104 C45.47746094 103.360625 45.51742187 102.72125 45.55859375 102.0625 C44.37716557 97.70030365 40.68538639 95.39841923 36.94921875 93.2265625 C34.78309471 92.16295668 32.61643167 91.10044784 30.44921875 90.0390625 C27.54262427 88.52226967 25.62601631 86.62764136 23.34765625 84.28515625 C19.04769993 80.39346609 15.60322692 80.35956681 9.9609375 80.58007812 C8.90132813 80.65677734 7.84171875 80.73347656 6.75 80.8125 C4.62081818 80.94142528 2.49048566 81.05285629 0.359375 81.14453125 C-0.57422852 81.21003174 -1.50783203 81.27553223 -2.46972656 81.34301758 C-5 81 -5 81 -7.30126953 79.30566406 C-9.2904635 76.60575778 -9.50780358 75.28411167 -9.5390625 71.96484375 C-9.56226563 70.98966797 -9.58546875 70.01449219 -9.609375 69.00976562 C-9.61453125 67.99591797 -9.6196875 66.98207031 -9.625 65.9375 C-9.71605364 58.96734366 -10.1819195 52.46033993 -11.54150391 45.61889648 C-14.33292848 29.67448146 -11.25933333 15.28052952 -2 2 C-1.34 1.34 -0.68 0.68 0 0 Z " fill="#84D14A" transform="translate(301,98)"/>
<path d="M0 0 C0.99 0.66 1.98 1.32 3 2 C3.51171875 4.6015625 3.51171875 4.6015625 3.6875 7.625 C3.75324219 8.62789063 3.81898438 9.63078125 3.88671875 10.6640625 C3.94279297 11.82035156 3.94279297 11.82035156 4 13 C4.66 13 5.32 13 6 13 C6.03738281 12.22914063 6.07476562 11.45828125 6.11328125 10.6640625 C6.17902344 9.66117187 6.24476563 8.65828125 6.3125 7.625 C6.37050781 6.62726563 6.42851562 5.62953125 6.48828125 4.6015625 C6.65714844 3.74304688 6.82601562 2.88453125 7 2 C7.99 1.34 8.98 0.68 10 0 C10.3403125 0.95519531 10.680625 1.91039062 11.03125 2.89453125 C14.25819946 11.62361083 18.06006736 18.73472742 24 26 C24.48082031 26.64324219 24.96164062 27.28648437 25.45703125 27.94921875 C37.18232687 42.98598114 56.52942046 49.67051438 74.6640625 52.58984375 C80.42262081 53.25155445 86.21094624 53.19072577 92 53.1875 C93.19085205 53.18814453 94.3817041 53.18878906 95.60864258 53.18945312 C104.5512031 53.13606108 113.18500848 52.51191279 122 51 C121.67257812 51.47953125 121.34515625 51.9590625 121.0078125 52.453125 C119.52325629 56.20479418 119.78891127 59.75680741 119.875 63.75 C119.88402344 64.54277344 119.89304687 65.33554687 119.90234375 66.15234375 C119.92582988 68.10169281 119.96169863 70.05088575 120 72 C118.91847656 72.17015625 117.83695313 72.3403125 116.72265625 72.515625 C115.16925984 72.76034692 113.61587545 73.00514511 112.0625 73.25 C111.24675507 73.37855881 110.43101013 73.50711761 109.59054565 73.63957214 C104.8665523 74.38538085 100.14347533 75.13634552 95.42211914 75.89868164 C79.75420778 78.42671533 64.06935703 80.82982259 48.375 83.1875 C45.99477689 83.54612591 43.61456851 83.90484955 41.234375 84.26367188 C38.95574233 84.60685822 36.67709698 84.94996045 34.3984375 85.29296875 C33.35368256 85.45024948 32.30892761 85.60753021 31.23251343 85.76957703 C26.15753144 86.53184924 21.0815861 87.28302372 16 88 C15.86464844 87.09765625 15.72929687 86.1953125 15.58984375 85.265625 C13.82164587 74.18396382 11.18614938 63.38798004 8.33764648 52.53613281 C7.88627319 50.79348145 7.88627319 50.79348145 7.42578125 49.015625 C7.01453003 47.45763184 7.01453003 47.45763184 6.5949707 45.86816406 C6.0307932 43.14844418 5.88392547 40.76670793 6 38 C5.34 38 4.68 38 4 38 C3.96769287 38.5674292 3.93538574 39.1348584 3.90209961 39.71948242 C3.33124604 47.18374631 1.55166317 54.11343086 -0.4375 61.3125 C-2.87973627 70.17001257 -4.79529705 78.88513644 -6 88 C-11.3673256 87.20244715 -16.73432958 86.40277121 -22.10107422 85.60131836 C-23.91804936 85.33025931 -25.73510386 85.05973152 -27.55224609 84.78979492 C-36.92181852 83.3975812 -46.28181692 81.97462173 -55.62109375 80.390625 C-62.12807433 79.28802477 -68.63354004 78.34586396 -75.1875 77.5625 C-86.86375974 76.10809748 -98.42784869 74.11770531 -110 72 C-109.96519531 70.22882813 -109.96519531 70.22882813 -109.9296875 68.421875 C-109.91092503 66.86458967 -109.89272534 65.30729748 -109.875 63.75 C-109.85824219 62.97269531 -109.84148437 62.19539063 -109.82421875 61.39453125 C-109.74031699 55.91693064 -109.74031699 55.91693064 -112 51 C-110.64567321 51.14433868 -109.29154775 51.29056661 -107.9375 51.4375 C-107.18339844 51.51871094 -106.42929688 51.59992188 -105.65234375 51.68359375 C-103.68432749 51.91836447 -101.72171468 52.19940364 -99.76342773 52.50488281 C-75.31666376 55.7211032 -48.63382282 53.66581382 -28.0625 39 C-26.3653872 37.67892386 -24.67671565 36.34686995 -23 35 C-22.37867188 34.55398438 -21.75734375 34.10796875 -21.1171875 33.6484375 C-10.24058526 25.40245534 -4.32062311 12.54034511 0 0 Z " fill="#FAA770" transform="translate(251,347)"/>
<path d="M0 0 C-0.45375 0.70125 -0.9075 1.4025 -1.375 2.125 C-5.1457287 8.79628925 -6.36854998 15.64310438 -4.453125 23.140625 C-1.78855592 29.52553582 3.57540169 33.02140401 9 37 C14.69283111 41.19732685 14.69283111 41.19732685 16 45 C16 50.98897968 14.77823354 54.73490521 11.9375 60 C9.20820014 65.16922816 7.69009627 69.18730218 9 75 C11.58799453 80.5288974 16.28017292 84.36593904 20.66015625 88.53515625 C23.9853056 92.03794296 26.08452409 95.21858472 26.875 100 C27.85115225 104.25380169 29.70993337 106.07549633 33 109 C39.6305854 115.46550859 39.6305854 115.46550859 40.8125 120.375 C38.40295287 131.12528719 30.42401483 138.82780221 21.42578125 144.671875 C15.62025983 148 15.62025983 148 13 148 C12.59910156 147.17757812 12.19820312 146.35515625 11.78515625 145.5078125 C5.56576133 133.29466965 -2.5037627 124.25721062 -14.015625 116.671875 C-18.15772367 113.9220784 -20.38670943 111.74497226 -22 107 C-22.2488116 101.96915088 -21.61705134 97.58494269 -20.5 92.6875 C-18.71949321 84.26309395 -17.21264723 76.64546041 -21.6796875 68.8671875 C-25.23096708 63.84496371 -29.72967462 60.15723976 -34.625 56.5 C-40.08452546 52.35187673 -43.91271385 47.6355647 -46 41 C-46.3322755 38.03772912 -46.37010874 35.10377688 -46.375 32.125 C-46.39949219 31.34769531 -46.42398438 30.57039063 -46.44921875 29.76953125 C-46.47825977 24.00972796 -45.4446251 20.65970084 -42 16 C-33.49025507 9.25342524 -10.73252312 -3.57750771 0 0 Z " fill="#84D149" transform="translate(223,95)"/>
<path d="M0 0 C3.1011215 0.53255165 6.2028046 1.06174718 9.3046875 1.58984375 C10.05393494 1.71845795 10.80318237 1.84707214 11.57513428 1.97958374 C17.43793956 2.97568521 23.31004497 3.79935007 29.21142578 4.53735352 C32.07470217 5.05343425 34.4741737 5.88159944 37.125 7.0625 C37.55333082 17.13043746 36.25531312 26.48354638 34.375 36.3125 C33.95911275 38.55463722 33.54742509 40.79751685 33.13627625 43.04052734 C32.86120509 44.54107416 32.5849352 46.04140175 32.30744934 47.54150391 C30.82738773 55.5781616 29.56142681 63.64510429 28.33105469 71.72363281 C28.18442383 72.67077148 28.03779297 73.61791016 27.88671875 74.59375 C27.76256592 75.41423828 27.63841309 76.23472656 27.51049805 77.08007812 C27.125 79.0625 27.125 79.0625 26.125 81.0625 C2.12680446 75.77849364 -22.08440349 63.38732808 -41.875 49.0625 C-41.33401379 39.72963008 -39.94281614 30.62045955 -38.34594727 21.42333984 C-37.93362763 19.04011758 -37.53380776 16.65500854 -37.13476562 14.26953125 C-36.87313879 12.74206006 -36.6107954 11.21471139 -36.34765625 9.6875 C-36.17098167 8.62656128 -36.17098167 8.62656128 -35.99073792 7.54418945 C-35.38339917 4.10191343 -34.8273704 1.00041062 -32.875 -1.9375 C-25.02595452 -7.17019699 -9.0754483 -1.57208791 0 0 Z " fill="#2EBBF5" transform="translate(158.875,420.9375)"/>
<path d="M0 0 C5.18040266 -0.56004353 8.95288607 0.96149414 13.6328125 2.9296875 C24.08402504 6.25176666 35.15024035 6.53989149 46.02148438 7.12304688 C55.21774411 7.70601937 64.03256813 9.11348066 72.3125 13.375 C73.07175781 13.75398437 73.83101563 14.13296875 74.61328125 14.5234375 C77 16 77 16 79.57885742 18.55029297 C83.49796153 21.83084386 87.1812732 21.71423118 92.125 21.671875 C92.99012207 21.68462463 93.85524414 21.69737427 94.74658203 21.71051025 C97.49805741 21.74668449 100.24830841 21.74951792 103 21.75 C105.75123383 21.77168983 108.50228674 21.8002614 111.25341797 21.83233643 C112.96071352 21.8499452 114.66810325 21.86036231 116.37548828 21.86248779 C120.69635372 21.88354833 124.74411307 22.13958556 129 23 C128.55269531 23.67804687 128.10539063 24.35609375 127.64453125 25.0546875 C123.65069709 31.20297803 120.19839888 37.41081735 117 44 C114.40560183 48.95294196 110.73223729 52.87920102 107 57 C104.39723979 54.47160437 102.06793223 52.08991031 99.875 49.1875 C86.58428825 33.13989139 61.66761098 26.14211807 42 22 C40.96101563 21.77957031 39.92203125 21.55914063 38.8515625 21.33203125 C35.88736896 20.71616707 35.88736896 20.71616707 33.125 22.5 C30.67058109 24.91105544 30.67058109 24.91105544 30.625 28.5625 C30.87490984 31.9771968 30.87490984 31.9771968 32 35 C37.24404423 37.07953478 42.6026867 38.41432559 48.0625 39.8125 C64.97498127 44.22613003 80.42028629 50.23159315 92 64 C93.24609375 66.26953125 93.24609375 66.26953125 94 68 C80.15929427 75.57321634 64.1363174 77.646781 48.62890625 74.15625 C31.55977214 68.98484396 19.70937257 56.60537689 11.14453125 41.34765625 C4.87410709 29.30132087 -0.58375078 13.71814326 0 0 Z " fill="#84D149" transform="translate(155,0)"/>
<path d="M0 0 C-0.66 0.33 -1.32 0.66 -2 1 C-2.20047719 8.14292806 -1.45146356 14.8295054 -0.3125 21.875 C-0.13678467 22.99398682 0.03893066 24.11297363 0.2199707 25.26586914 C1.74309149 34.79481488 3.48165862 44.28176816 5.33666992 53.75146484 C6.63409939 60.49147907 7.52089663 67.15214059 8 74 C-10.26980866 80.3052805 -30.56791017 85.15697692 -50 85 C-51.87352017 73.8219441 -53.73657157 62.6421762 -55.59136963 51.46099854 C-55.98501827 49.09022829 -56.37982414 46.71965348 -56.77490234 44.34912109 C-57.36988644 40.77617552 -57.95970994 37.20241401 -58.54556274 33.62796021 C-58.86920786 31.66021588 -59.19762234 29.6932579 -59.52612305 27.72631836 C-59.72117432 26.53014893 -59.91622559 25.33397949 -60.1171875 24.1015625 C-60.28847168 23.06338379 -60.45975586 22.02520508 -60.63623047 20.95556641 C-61.58461086 13.25013486 -61.58461086 13.25013486 -59.93457031 9.72167969 C-57.1465314 7.24045172 -54.71610303 7.03785883 -51.046875 6.453125 C-50.34657166 6.33664612 -49.64626831 6.22016724 -48.92474365 6.10015869 C-47.41007879 5.85010099 -45.89415147 5.60759818 -44.37719727 5.37182617 C-41.97903641 4.99672101 -39.58627331 4.59660853 -37.19335938 4.18945312 C-33.05811902 3.48909863 -28.91909554 2.81595069 -24.77734375 2.15527344 C-23.0703787 1.88155223 -21.36400603 1.60411478 -19.65820312 1.32324219 C-17.15352836 0.91085251 -14.64738105 0.50889299 -12.140625 0.109375 C-11.3802594 -0.0176178 -10.6198938 -0.1446106 -9.83648682 -0.27545166 C-3.36443099 -1.2845208 -3.36443099 -1.2845208 0 0 Z " fill="#2A9DDC" transform="translate(323,427)"/>
<path d="M0 0 C1.7421875 0.98828125 1.7421875 0.98828125 2.796875 3.5078125 C3.06757813 4.59449219 3.33828125 5.68117187 3.6171875 6.80078125 C8.66932882 24.64907973 18.47037893 36.81609044 34.171875 46.484375 C40.97205771 50.24119725 48.14364377 51.64156529 55.7421875 52.98828125 C53.39792341 55.35303715 51.05494034 57.70121067 48.6015625 59.953125 C32.96586163 74.57540081 24.95102327 95.14673407 21.7421875 115.98828125 C21.0821875 115.98828125 20.4221875 115.98828125 19.7421875 115.98828125 C19.59523438 115.17488281 19.44828125 114.36148438 19.296875 113.5234375 C14.33878521 88.19158796 3.65503336 65.86737412 -18.2578125 50.98828125 C-31.44244761 42.69923755 -45.38983999 36.61750346 -60.2578125 31.98828125 C-59.11066683 24.48532849 -59.11066683 24.48532849 -56.2578125 20.98828125 C-52.98880209 18.85870956 -49.45222695 17.41986048 -45.79296875 16.09765625 C-44.95636719 15.7934375 -44.11976563 15.48921875 -43.2578125 15.17578125 C-42.4946875 14.92183594 -41.7315625 14.66789062 -40.9453125 14.40625 C-38.27679222 12.99829526 -36.77657797 11.58982883 -34.640625 9.49609375 C-29.90058542 5.21593366 -25.32829999 4.47425501 -19.1328125 3.67578125 C-17.21298033 3.39179001 -15.2936867 3.10412982 -13.375 2.8125 C-12.48264648 2.68278809 -11.59029297 2.55307617 -10.67089844 2.41943359 C-8.05011477 2.01377449 -8.05011477 2.01377449 -4.828125 0.8203125 C-2.2578125 -0.01171875 -2.2578125 -0.01171875 0 0 Z " fill="#2B9DDC" transform="translate(235.2578125,244.01171875)"/>
<path d="M0 0 C16.69024339 1.96784529 35.84580451 21.51394333 46 34 C46.77214844 34.93457031 47.54429687 35.86914062 48.33984375 36.83203125 C60.01094289 51.26572254 75 74.02939748 75 93 C66.13906199 96.22914878 57.70414317 98.03051513 48.8125 94 C39.63884054 89.37300538 33.87798591 80.34548936 28.4375 72 C19.26958604 57.89867752 19.26958604 57.89867752 5.8125 48.3125 C-0.1882041 45.29275509 -4.19317591 42.70398939 -7.25 36.4375 C-10.12083596 23.27950186 -6.08333996 11.66716813 0 0 Z " fill="#A2E96D" transform="translate(319,106)"/>
<path d="M0 0 C23.09270038 6.12549575 48.06723567 13.16730411 61.80712891 34.44384766 C62.44650391 33.80447266 63.08587891 33.16509766 63.74462891 32.50634766 C64.20869141 32.04873047 64.67275391 31.59111328 65.15087891 31.11962891 C66.34348688 29.91295716 67.50698708 28.67726572 68.65087891 27.42431641 C82.05911306 13.14054457 99.01909367 7.06034366 117.36962891 1.50634766 C118.40522949 1.18714355 119.44083008 0.86793945 120.5078125 0.5390625 C129.82543422 -2.17940117 129.82543422 -2.17940117 134.80712891 -0.55615234 C137.18212891 1.06884766 137.18212891 1.06884766 138.80712891 3.44384766 C139.24717891 6.96424765 139.398448 9.34060921 137.70166016 12.50634766 C135.09321572 15.17395269 132.60813868 15.83509355 129.05712891 16.94384766 C128.06120728 17.26228638 128.06120728 17.26228638 127.04516602 17.5871582 C122.52833637 19.00469372 117.97213662 20.14607215 113.36962891 21.25634766 C99.16705928 24.98916962 85.21358559 31.87229631 76.83837891 44.38525391 C73.35129 50.56167789 71.69959828 55.25020652 71.66650391 62.34619141 C71.64716797 63.48378906 71.62783203 64.62138672 71.60791016 65.79345703 C71.57411368 68.18130828 71.55583116 70.56943055 71.55322266 72.95751953 C71.34418184 82.67791743 71.34418184 82.67791743 68.47900391 85.71728516 C64.89055765 88.03613493 62.99729394 88.26691579 58.80712891 87.44384766 C55.49480563 84.67152468 54.0447559 82.98029446 53.37890625 78.67504883 C53.23278505 75.34085207 53.20892693 72.03104317 53.24462891 68.69384766 C53.3405377 55.76829378 51.39636452 47.24441017 42.28759766 37.76416016 C31.12687209 27.32404837 16.58655912 22.00791838 1.89306641 18.48291016 C1.22509033 18.31927979 0.55711426 18.15564941 -0.13110352 17.98706055 C-2.03183797 17.5300394 -3.93843003 17.09758565 -5.84521484 16.66650391 C-9.73142903 15.24715147 -11.60002823 13.63911684 -14.19287109 10.44384766 C-14.88037109 6.94384766 -14.88037109 6.94384766 -14.19287109 3.44384766 C-9.31167935 -2.13465719 -6.72775671 -1.70628254 0 0 Z " fill="#A1E96D" transform="translate(199.19287109375,21.55615234375)"/>
<path d="M0 0 C8.38233351 7.75108948 13.30202175 17.52578836 13.80688477 28.96728516 C13.82656209 38.49966325 12.42988205 46.44655753 8 55 C7.5771875 55.91523438 7.154375 56.83046875 6.71875 57.7734375 C2.73073786 65.86539237 -2.98789578 72.3673648 -9 79 C-9.63550781 79.71929687 -10.27101563 80.43859375 -10.92578125 81.1796875 C-20.78520849 91.71681373 -33.7530801 99.58275323 -45.5378418 107.76123047 C-52.45182953 112.573232 -59.20351037 117.57624353 -65.91015625 122.671875 C-70.36039479 126.02502566 -72.39651805 127.4574271 -78 127 C-81.34265205 125.79293121 -81.94704566 125.07943151 -84 122 C-84.56640206 117.71152728 -84.50635133 115.71456144 -81.9765625 112.14453125 C-78.7445259 108.47972946 -74.9274323 105.78320834 -70.9375 103 C-70.15600586 102.4445752 -69.37451172 101.88915039 -68.56933594 101.31689453 C-64.35260464 98.32774513 -60.10849707 95.37817992 -55.86328125 92.4296875 C-23.10375351 70.68631875 -23.10375351 70.68631875 -5 37 C-4.84406175 34.19691487 -4.85716626 31.5027739 -5.0546875 28.703125 C-4.98440885 25.22935175 -3.97554716 22.33540949 -3 19 C-2.36960948 15.70061183 -1.87015075 12.3845573 -1.375 9.0625 C-1.2409375 8.18787109 -1.106875 7.31324219 -0.96875 6.41210938 C-0.64181424 4.27535066 -0.32034321 2.13775701 0 0 Z " fill="#FBA870" transform="translate(431,211)"/>
<path d="M0 0 C0.33 0 0.66 0 1 0 C1.11593506 0.7113208 1.23187012 1.4226416 1.35131836 2.15551758 C1.8775008 5.37493367 2.40745549 8.59371761 2.9375 11.8125 C3.11990234 12.93205078 3.30230469 14.05160156 3.49023438 15.20507812 C3.66748047 16.27822266 3.84472656 17.35136719 4.02734375 18.45703125 C4.27085571 19.9416687 4.27085571 19.9416687 4.51928711 21.45629883 C4.96143193 24.10856614 4.96143193 24.10856614 6 27 C5.94364383 28.45962479 5.856479 29.91817373 5.75 31.375 C5.68832087 45.54064 15.19798283 58.19349706 24.5625 68.0625 C34.00769632 77.08434131 44.99276344 84.37178919 55.76123047 91.70141602 C61.32442643 95.50132014 66.80463219 99.40821704 72.25 103.375 C73.06057861 103.95813965 73.87115723 104.5412793 74.70629883 105.14208984 C78.70216067 108.07297994 82.28164895 110.77224876 85 115 C85.5 118.5625 85.5 118.5625 85 122 C82.44092617 125.24149352 80.42169595 126.79690058 76.3203125 127.3828125 C71.83735218 126.86595355 69.2626745 124.63736338 65.875 121.875 C64.45821361 120.76505059 63.03881977 119.65842346 61.6171875 118.5546875 C60.86920898 117.97170898 60.12123047 117.38873047 59.35058594 116.78808594 C55.32615015 113.72670582 51.16031542 110.87238968 47 108 C-6.31495589 70.93549977 -6.31495589 70.93549977 -12 40 C-13.60417877 24.27550295 -9.95056833 13.94426024 -1 1 C-0.67 0.67 -0.34 0.34 0 0 Z " fill="#FBA870" transform="translate(80,211)"/>
<path d="M0 0 C0.66 0 1.32 0 2 0 C4.01991621 8.32861243 6.01869653 16.66211813 8 25 C8.22333008 25.93650391 8.44666016 26.87300781 8.67675781 27.83789062 C9.25187417 30.26493668 9.81578589 32.69424782 10.375 35.125 C10.54225586 35.8267334 10.70951172 36.5284668 10.88183594 37.25146484 C11.86170801 41.58081361 12.47779081 45.57247184 12 50 C11.33129883 50.62181152 10.66259766 51.24362305 9.97363281 51.88427734 C7.78340512 53.8121641 7.78340512 53.8121641 7.72705078 56.37402344 C7.84032715 57.27668945 7.95360352 58.17935547 8.0703125 59.109375 C8.19825195 60.17220703 8.32619141 61.23503906 8.45800781 62.33007812 C8.63686523 63.54115234 8.81572266 64.75222656 9 66 C9.09792847 66.67313232 9.19585693 67.34626465 9.29675293 68.03979492 C9.97417024 72.64623265 10.71156228 77.24142916 11.47412109 81.83447266 C11.87189659 84.23130019 12.26272177 86.62917873 12.65234375 89.02734375 C14.15916284 98.25878168 14.15916284 98.25878168 15.86425781 107.45507812 C16.0035672 108.16629822 16.14287659 108.87751831 16.28640747 109.61029053 C16.66803086 111.53432862 17.06041063 113.45622454 17.45361328 115.37792969 C18 119 18 119 18 127 C6.78 127 -4.44 127 -16 127 C-16 121.34072509 -15.81826146 117.00769813 -14.828125 111.58984375 C-14.70561371 110.90820663 -14.58310242 110.22656952 -14.45687866 109.52427673 C-14.19545203 108.07460795 -13.93089136 106.62550127 -13.66339111 105.17694092 C-13.24473622 102.9089848 -12.8348645 100.63959281 -12.42724609 98.36962891 C-11.40323637 92.67659813 -10.36300191 86.98655808 -9.32324219 81.29638672 C-8.75159696 78.15689656 -8.18774128 75.01609562 -7.625 71.875 C-7.45774414 70.97773193 -7.29048828 70.08046387 -7.11816406 69.15600586 C-6.20011424 64.02331761 -5.49581216 59.209941 -6 54 C-6.66725098 53.38302246 -7.33450195 52.76604492 -8.02197266 52.13037109 C-10 50 -10 50 -10.3125 47.34570312 C-9.37342342 38.13688344 -7.36145853 29.42425981 -5 20.5 C-4.44414346 18.35681054 -3.89135357 16.21284885 -3.33911133 14.06872559 C-2.84167939 12.14414597 -2.33707729 10.2214237 -1.83203125 8.29882812 C-1.1363052 5.54042133 -0.52457358 2.7950764 0 0 Z " fill="#034888" transform="translate(255,385)"/>
<path d="M0 0 C0.15855469 0.92941406 0.31710937 1.85882813 0.48046875 2.81640625 C2.58683559 14.24131262 2.58683559 14.24131262 10.1015625 22.5234375 C12.03502817 23.76003568 13.97985363 24.91222888 16 26 C5.36064865 34.7162761 -9.99956956 34.25287312 -23 33 C-27.53262475 32.21427737 -31.76099218 30.77326434 -36 29 C-36.93714844 28.62617187 -37.87429688 28.25234375 -38.83984375 27.8671875 C-39.90912109 27.43792969 -39.90912109 27.43792969 -41 27 C-39.75163305 19.88904904 -33.07780679 14.53771913 -27.44140625 10.51171875 C-9.55719045 -0.56218767 -9.55719045 -0.56218767 0 0 Z " fill="#60B450" transform="translate(316,42)"/>
<path d="M0 0 C14.87793411 1.0379954 28.03522013 9.51506136 38.22265625 19.88671875 C39.88345389 21.8614254 40.97393332 23.64483141 42 26 C28.23118708 33.53387877 11.6059647 36.03834141 -3.7578125 31.875 C-7.2530437 30.77562879 -10.64046207 29.46521903 -14 28 C-14 27.01 -14 26.02 -14 25 C-12.390625 23.640625 -12.390625 23.640625 -10.25 22.25 C-3.8524608 17.61574016 -2.0526642 13.15542626 -0.75 5.5625 C-0.48636305 3.71022313 -0.23168692 1.85654389 0 0 Z " fill="#5FB450" transform="translate(207,42)"/>
<path d="M0 0 C5.58674804 -0.02478762 11.1734638 -0.04290152 16.76025391 -0.05493164 C18.65934812 -0.05994885 20.5584385 -0.06676411 22.45751953 -0.07543945 C25.19304352 -0.08761963 27.92851626 -0.09325454 30.6640625 -0.09765625 C31.50804596 -0.10281754 32.35202942 -0.10797882 33.22158813 -0.11329651 C37.59835842 -0.11370954 41.69004167 0.11911036 46 1 C45.32904297 2.01707031 45.32904297 2.01707031 44.64453125 3.0546875 C40.65069709 9.20297803 37.19839888 15.41081735 34 22 C31.40560183 26.95294196 27.73223729 30.87920102 24 35 C16.70568194 28.13475947 12.10200423 20.61216598 7.90625 11.5625 C5.80785008 7.32719741 2.92203047 3.69452128 0 0 Z " fill="#034887" transform="translate(238,22)"/>
<path d="M0 0 C3.6891038 1.67686536 6.33723849 3.95684399 9 7 C10.86107243 12.5832173 10.52996207 18.12954563 8.9375 23.75 C6.04210512 28.60679141 2.41513603 32.19495466 -3 34 C-6.7403762 34.49871683 -10.39111357 34.83385297 -13.81640625 33.05859375 C-17.59251398 30.03960035 -20.51650274 26.79891191 -21.3515625 21.96484375 C-21.75831289 15.72443641 -19.96143902 11.73837985 -16 7 C-11.0144593 1.40854071 -7.59495407 -1.24507444 0 0 Z " fill="#FBD6C2" transform="translate(417,228)"/>
<path d="M0 0 C0.66 0.33 1.32 0.66 2 1 C2 1.66 2 2.32 2 3 C2.59425781 3.2475 3.18851563 3.495 3.80078125 3.75 C6.33538759 5.19062883 7.49969565 6.6396772 9.1875 9 C9.69667969 9.70125 10.20585938 10.4025 10.73046875 11.125 C13.33593499 14.97307322 13.58444157 18.44794105 13 23 C11.57988481 27.03312714 9.46631547 29.57706271 6.3125 32.4375 C2.00112472 34.47116758 -1.32218542 35.05092794 -6 34 C-12.13717306 30.79290089 -15.81205059 26.56384824 -18 20 C-18.39485547 15.5199091 -18.55885594 11.39713986 -16.875 7.1875 C-11.55285566 0.9783316 -8.24343604 -1.15408105 0 0 Z " fill="#FBD6C2" transform="translate(103,228)"/>
<path d="M0 0 C10.00915638 1.24201211 16.79071015 7.0668202 22.875 14.75 C27.22152534 20.41948 30.51559014 26.27424955 33 33 C29.53004445 33 29.21847556 32.58686505 26.6875 30.4375 C17.65065529 23.42358199 6.88894147 19.21084171 -4 16 C-4 13 -4 13 -2.5625 11.375 C-0.23263262 7.83360159 -0.25775544 4.15963945 0 0 Z " fill="#61B550" transform="translate(219,11)"/>
<path d="M0 0 C0.10957031 0.66386719 0.21914063 1.32773438 0.33203125 2.01171875 C0.49058594 2.89472656 0.64914062 3.77773437 0.8125 4.6875 C0.96332031 5.55761719 1.11414063 6.42773438 1.26953125 7.32421875 C2.07433941 10.27231281 3.32748979 12.45686804 5 15 C4.17761841 15.30852905 4.17761841 15.30852905 3.33862305 15.62329102 C-7.10235047 19.57466983 -16.92526899 23.39436541 -26 30 C-26.72960937 30.51046875 -27.45921875 31.0209375 -28.2109375 31.546875 C-29.82053704 32.67932053 -31.41294999 33.83616333 -33 35 C-29.46746417 21.10535905 -19.75072811 9.88943409 -8 2 C-4.92319393 0.4957837 -3.4215158 0 0 0 Z " fill="#61B550" transform="translate(304,11)"/>
</svg>
